<svg width="50" height="50" viewBox="0 0 50 50" fill="none" xmlns="http://www.w3.org/2000/svg">
<path d="M48.3276 35.6352V33.3352H49.1609C49.3907 33.3369 49.6108 33.2433 49.7691 33.0769C49.9107 32.9186 49.9908 32.7144 49.9941 32.502L48.5026 4.17195C48.3606 1.87892 46.4589 0.0916138 44.1614 0.0916138C41.8639 0.0916138 39.9623 1.87892 39.8203 4.17195L38.3288 32.502C38.3219 32.729 38.4024 32.9495 38.5538 33.1188C38.719 33.2697 38.9382 33.3478 39.162 33.3352H39.9953V35.6352L38.4203 38.7932C38.3015 39.0287 38.3015 39.307 38.4203 39.543L43.4197 49.5418C43.4604 49.6338 43.5202 49.716 43.5947 49.7835C43.6919 49.8734 43.8091 49.9393 43.9364 49.9751H44.3946C44.5223 49.9393 44.6395 49.8734 44.7363 49.7835C44.8112 49.716 44.8706 49.6338 44.9113 49.5418L49.9107 39.543C50.0295 39.307 50.0295 39.0287 49.9107 38.7932L48.3276 35.6352ZM40.0368 31.6688L40.3871 25.0029H47.9358L48.3276 31.6688H40.0368ZM41.4868 4.21386C41.4868 2.73657 42.6841 1.53879 44.1614 1.53879C45.6387 1.53879 46.8361 2.73657 46.8361 4.21386L47.8443 23.3783H40.4786L40.5701 21.7118H45.2111C45.6717 21.7118 46.0444 21.3387 46.0444 20.8786C46.0444 20.418 45.6717 20.0454 45.2111 20.0454H40.6535L41.4868 4.21386ZM46.6611 33.3352V35.0017H41.6617V33.3352H46.6611ZM44.9947 45.634V40.0011H45.8279C46.2881 40.0011 46.6611 39.628 46.6611 39.1679C46.6611 38.7077 46.2881 38.3347 45.8279 38.3347H42.495C42.0348 38.3347 41.6617 38.7077 41.6617 39.1679C41.6617 39.628 42.0348 40.0011 42.495 40.0011H43.3282V45.634L40.0953 39.1679L41.3452 36.6682H46.9777L48.2275 39.1679L44.9947 45.634Z" fill="#2E2E30"/>
<path d="M28.3301 10.8379C28.7903 10.8379 29.1634 10.4648 29.1634 10.0046C29.1634 9.54447 28.7903 9.17139 28.3301 9.17139H6.666C6.20585 9.17139 5.83276 9.54447 5.83276 10.0046V13.3376C5.83276 13.7977 6.20585 14.1708 6.666 14.1708H28.3301C28.7903 14.1708 29.1634 13.7977 29.1634 13.3376C29.1634 12.8774 28.7903 12.5043 28.3301 12.5043H7.49924V10.8379H28.3301Z" fill="#2E2E30"/>
<path d="M29.1633 18.337C29.1633 17.8768 28.7902 17.5037 28.3301 17.5037H9.99889C9.53873 17.5037 9.16565 17.8768 9.16565 18.337C9.16565 18.7971 9.53873 19.1702 9.99889 19.1702H28.3301C28.7902 19.1702 29.1633 18.7971 29.1633 18.337Z" fill="#2E2E30"/>
<path d="M4.99951 22.5031C4.99951 22.9633 5.3726 23.3363 5.83275 23.3363H19.1645C19.6247 23.3363 19.9978 22.9633 19.9978 22.5031C19.9978 22.0429 19.6247 21.6699 19.1645 21.6699H5.83275C5.3726 21.6699 4.99951 22.0429 4.99951 22.5031Z" fill="#2E2E30"/>
<path d="M24.1639 21.6699C23.7038 21.6699 23.3307 22.0429 23.3307 22.5031C23.3307 22.9633 23.7038 23.3363 24.1639 23.3363H27.4969C27.957 23.3363 28.3301 22.9633 28.3301 22.5031C28.3301 22.0429 27.957 21.6699 27.4969 21.6699H24.1639Z" fill="#2E2E30"/>
<path d="M16.6648 26.6693C16.6648 26.2091 16.2917 25.8361 15.8316 25.8361H5.83275C5.3726 25.8361 4.99951 26.2091 4.99951 26.6693C4.99951 27.1294 5.3726 27.5025 5.83275 27.5025H15.8316C16.2917 27.5025 16.6648 27.1294 16.6648 26.6693Z" fill="#2E2E30"/>
<path d="M15.8316 30.8356C15.8316 30.3754 15.4585 30.0023 14.9983 30.0023H5.83275C5.3726 30.0023 4.99951 30.3754 4.99951 30.8356C4.99951 31.2957 5.3726 31.6688 5.83275 31.6688H14.9983C15.4585 31.6688 15.8316 31.2957 15.8316 30.8356Z" fill="#2E2E30"/>
<path d="M5.83275 34.1685C5.3726 34.1685 4.99951 34.5415 4.99951 35.0017C4.99951 35.4618 5.3726 35.8349 5.83275 35.8349H11.6654C12.1256 35.8349 12.4986 35.4618 12.4986 35.0017C12.4986 34.5415 12.1256 34.1685 11.6654 34.1685H5.83275Z" fill="#2E2E30"/>
<path d="M32.4962 0.0057373H2.49971C1.11925 0.0057373 0 1.12499 0 2.50545V40.8343C0 42.2148 1.11925 43.334 2.49971 43.334H16.6647C17.1249 43.334 17.498 42.961 17.498 42.5008C17.498 42.0406 17.1249 41.6676 16.6647 41.6676H2.49971C2.03956 41.6676 1.66647 41.2945 1.66647 40.8343V7.50487H33.3295V40.8343C33.3295 41.2945 32.9564 41.6676 32.4962 41.6676H29.9965C29.5364 41.6676 29.1633 42.0406 29.1633 42.5008C29.1633 42.961 29.5364 43.334 29.9965 43.334H32.4962C33.8767 43.334 34.9959 42.2148 34.9959 40.8343V2.50545C34.9959 1.12499 33.8767 0.0057373 32.4962 0.0057373ZM1.66647 5.83839V2.50545C1.66647 2.0453 2.03956 1.67221 2.49971 1.67221H32.4962C32.9564 1.67221 33.3295 2.0453 33.3295 2.50545V5.83839H1.66647Z" fill="#2E2E30"/>
<path d="M23.3305 30.8354C21.9501 30.8354 20.8308 31.9547 20.8308 33.3352C20.8308 34.7156 21.9501 35.8349 23.3305 35.8349C24.711 35.8349 25.8302 34.7156 25.8302 33.3352C25.8302 31.9547 24.711 30.8354 23.3305 30.8354ZM23.3305 34.1684C22.8704 34.1684 22.4973 33.7953 22.4973 33.3352C22.4973 32.875 22.8704 32.5019 23.3305 32.5019C23.7907 32.5019 24.1638 32.875 24.1638 33.3352C24.1638 33.7953 23.7907 34.1684 23.3305 34.1684Z" fill="#2E2E30"/>
<path d="M29.9964 33.3352C29.9952 32.4092 29.4826 31.5592 28.6632 31.1272C28.9358 30.2419 28.6965 29.2788 28.0419 28.6238C27.3869 27.9692 26.4238 27.7299 25.5385 28.0025C25.1048 27.1856 24.2557 26.6746 23.3305 26.6746C22.4053 26.6746 21.5562 27.1856 21.1225 28.0025C20.2372 27.7299 19.2742 27.9692 18.6192 28.6238C17.9645 29.2788 17.7253 30.2419 17.9979 31.1272C17.1805 31.5609 16.6699 32.41 16.6699 33.3352C16.6699 34.2604 17.1805 35.1099 17.9979 35.5432C17.7253 36.4264 17.9625 37.3878 18.6143 38.0429C18.777 38.2052 18.9621 38.3427 19.1643 38.4514V49.1667C19.166 49.5031 19.3698 49.8054 19.681 49.9332C19.9911 50.0638 20.3495 49.9946 20.5891 49.7582L23.3305 47.0087L26.0719 49.7582C26.229 49.9145 26.4421 50.0011 26.6635 49.9999C26.7729 50.0028 26.8811 49.98 26.98 49.9332C27.2912 49.8054 27.4951 49.5031 27.4967 49.1667V38.4595C27.6989 38.3509 27.884 38.2133 28.0468 38.0514C28.6986 37.396 28.9358 36.435 28.6632 35.5517C29.485 35.118 29.9985 34.2644 29.9964 33.3352ZM23.9221 45.2422C23.7659 45.0843 23.5527 44.9956 23.3305 44.9956C23.1084 44.9956 22.8952 45.0843 22.739 45.2422L20.8308 47.1584V38.7431L21.1225 38.6678C21.5562 39.4852 22.4053 39.9958 23.3305 39.9958C24.2557 39.9958 25.1048 39.4852 25.5385 38.6678L25.8302 38.7431V47.1584L23.9221 45.2422ZM27.4967 34.1684H27.3551C27.0158 34.1668 26.709 34.371 26.5801 34.6851C26.4519 34.9972 26.5243 35.3556 26.7636 35.5932L26.8636 35.6933C27.1867 36.0184 27.1867 36.5432 26.8636 36.8683C26.7717 36.9647 26.657 37.0363 26.53 37.0766H26.4051C26.1427 37.1173 25.8766 37.0306 25.6887 36.8431L25.5886 36.743C25.3501 36.5029 24.9901 36.4305 24.6776 36.5603C24.3647 36.6901 24.1617 36.9964 24.1638 37.3349V37.5014C24.1638 37.9615 23.7907 38.3346 23.3305 38.3346C22.8704 38.3346 22.4973 37.9615 22.4973 37.5014V37.3598C22.4989 37.0205 22.2947 36.7137 21.9806 36.5847C21.8801 36.5448 21.7723 36.5253 21.6641 36.5265C21.4427 36.5253 21.2295 36.6124 21.0725 36.7682L20.9724 36.8683C20.7844 37.0558 20.5184 37.1425 20.2559 37.1014H20.131C20.0041 37.0615 19.8894 36.9899 19.7974 36.8931C19.4744 36.568 19.4744 36.0432 19.7974 35.7181L19.906 35.6184C20.1453 35.3804 20.2177 35.022 20.0891 34.7099C19.9601 34.3962 19.6538 34.1916 19.3145 34.1936H19.1643C18.7042 34.1936 18.3311 33.8205 18.3311 33.3604C18.3311 32.8998 18.7042 32.5272 19.1643 32.5272H19.3059C19.6452 32.5288 19.952 32.3241 20.081 32.0105C20.2091 31.6984 20.1367 31.34 19.8975 31.1019L19.7974 31.0023C19.4707 30.6776 19.4691 30.1499 19.7933 29.8232C20.118 29.4965 20.6457 29.4945 20.9724 29.8191L21.0725 29.9274C21.3101 30.1666 21.6689 30.239 21.9806 30.1104C22.2947 29.9815 22.4989 29.6751 22.4973 29.3358V29.169C22.4973 28.7088 22.8704 28.3357 23.3305 28.3357C23.7907 28.3357 24.1638 28.7088 24.1638 29.169V29.3106C24.1621 29.6503 24.3664 29.9567 24.6805 30.0856C24.9921 30.2138 25.351 30.1418 25.5886 29.9021L25.6887 29.8025C26.0129 29.4758 26.541 29.4737 26.8677 29.798C27.1944 30.1226 27.196 30.6503 26.8718 30.977L26.7636 31.0771C26.5243 31.3147 26.4519 31.6736 26.5801 31.9852C26.709 32.2993 27.0158 32.5036 27.3551 32.5019H27.4967C27.9569 32.5019 28.3299 32.875 28.3299 33.3352C28.3299 33.7953 27.9569 34.1684 27.4967 34.1684Z" fill="#2E2E30"/>
</svg>
